HIERARCHY
ROOT reference
{
  OFFSET 0 0 0
  CHANNELS 6 Xposition Yposition Zposition Zrotation Xrotation Yrotation
  JOINT Hips
  {
    OFFSET 1.29631 81.4501 25.6447
    CHANNELS 6 Xposition Yposition Zposition Zrotation Xrotation Yrotation
    JOINT Spine
    {
      OFFSET 0 7.59534 0
      CHANNELS 6 Xposition Yposition Zposition Zrotation Xrotation Yrotation
      JOINT Spine1
      {
        OFFSET 0 23.5015 0
        CHANNELS 6 Xposition Yposition Zposition Zrotation Xrotation Yrotation
        JOINT Neck
        {
          OFFSET 0 23.405 2.12773
          CHANNELS 6 Xposition Yposition Zposition Zrotation Xrotation Yrotation
          JOINT Head
          {
            OFFSET 0 12.9677 -1.85252
            CHANNELS 6 Xposition Yposition Zposition Zrotation Xrotation Yrotation
            End Site
            {
              OFFSET 0 23.1565 0
            }
          }
        }
        JOINT LeftShoulder
        {
          OFFSET 3.62206 22.4732 -0.132728
          CHANNELS 6 Xposition Yposition Zposition Zrotation Xrotation Yrotation
          JOINT LeftArm
          {
            OFFSET 8.17784 0 0
            CHANNELS 6 Xposition Yposition Zposition Zrotation Xrotation Yrotation
            JOINT LeftForeArm
            {
              OFFSET 30.104 0 0
              CHANNELS 6 Xposition Yposition Zposition Zrotation Xrotation Yrotation
              JOINT LeftHand
              {
                OFFSET 24.4664 0 0
                CHANNELS 6 Xposition Yposition Zposition Zrotation Xrotation Yrotation
                End Site
                {
                  OFFSET 13.8939 0 0
                }
              }
            }
          }
        }
        JOINT RightShoulder
        {
          OFFSET -3.6336 22.4732 -0.132728
          CHANNELS 6 Xposition Yposition Zposition Zrotation Xrotation Yrotation
          JOINT RightArm
          {
            OFFSET -8.17784 0 0
            CHANNELS 6 Xposition Yposition Zposition Zrotation Xrotation Yrotation
            JOINT RightForeArm
            {
              OFFSET -30.104 0 0
              CHANNELS 6 Xposition Yposition Zposition Zrotation Xrotation Yrotation
              JOINT RightHand
              {
                OFFSET -24.4664 0 0
                CHANNELS 6 Xposition Yposition Zposition Zrotation Xrotation Yrotation
                End Site
                {
                  OFFSET -13.8939 0 0
                }
              }
            }
          }
        }
      }
    }
    JOINT LeftUpLeg
    {
      OFFSET 9.26261 0 0
      CHANNELS 6 Xposition Yposition Zposition Zrotation Xrotation Yrotation
      JOINT LeftLeg
      {
        OFFSET 0 -35.4897 0
        CHANNELS 6 Xposition Yposition Zposition Zrotation Xrotation Yrotation
        JOINT LeftFoot
        {
          OFFSET 0 -38.2023 0
          CHANNELS 6 Xposition Yposition Zposition Zrotation Xrotation Yrotation
          JOINT LeftToeBase
          {
            OFFSET 0 -6.0207 13.8939
            CHANNELS 6 Xposition Yposition Zposition Zrotation Xrotation Yrotation
            End Site
            {
              OFFSET 0 0 3.70504
            }
          }
        }
      }
    }
    JOINT RightUpLeg
    {
      OFFSET -9.26261 0 0
      CHANNELS 6 Xposition Yposition Zposition Zrotation Xrotation Yrotation
      JOINT RightLeg
      {
        OFFSET 0 -35.4897 0
        CHANNELS 6 Xposition Yposition Zposition Zrotation Xrotation Yrotation
        JOINT RightFoot
        {
          OFFSET 0 -38.2023 0
          CHANNELS 6 Xposition Yposition Zposition Zrotation Xrotation Yrotation
          JOINT RightToeBase
          {
            OFFSET 0 -6.0207 13.8939
            CHANNELS 6 Xposition Yposition Zposition Zrotation Xrotation Yrotation
            End Site
            {
              OFFSET 0 0 3.70504
            }
          }
        }
      }
    }
  }
}
MOTION
Frames:	7
Frame Time:	0.004
0 0 0 0 0 -0 -5.06837 75.3728 -194.575 -0.292215 0.126781 -5.01097 -3.55271e-015 7.59534 2.84217e-014 0.511571 -6.39172 0.695514 0 23.5015 2.84217e-014 1.55725 -1.11243 0.681844 -1.77636e-015 23.405 2.12773 -4.8751 26.6111 -3.24009 0 12.9677 -1.85252 2.78343 -3.24271 -3.38322 3.62206 22.4732 -0.132728 11.9436 2.69381 13.8964 8.17784 2.84217e-014 -2.84217e-014 -17.8365 2.75383 -2.40213 30.104 0 2.84217e-014 1.46927 0.31798 0.872929 24.4664 0 -2.84217e-014 -2.09378 0.350622 -2.39743 -3.6336 22.4732 -0.132728 -10.2272 2.90523 19.1062 -8.17784 0 0 15.9701 -1.65941 -6.44182 -30.104 0 0 -3.95553 0.405924 2.34359 -24.4664 0 2.84217e-014 0.236663 0.490499 1.75671 9.26261 1.42109e-014 2.84217e-014 3.46208 11.5565 -1.91427 -5.32907e-015 -35.4897 -2.84217e-014 -0.468392 -7.32444 -5.67354 0 -38.2023 0 0.0914039 -6.52056 22.6928 0 -6.0207 13.8939 -4.96962e-017 3.97569e-016 -1.59028e-015 -9.26261 1.42109e-014 0 -5.00135 1.31289 1.08534 7.10543e-015 -35.4897 2.84217e-014 -1.61828 5.88681 -2.62178 0 -38.2023 2.84217e-014 3.28162 -7.59886 0.314896 0 -6.0207 13.8939 -1.27191e-015 4.96962e-017 7.95139e-016 
0 0 0 0 0 -0 -5.06837 75.3728 -194.575 -0.292215 0.126781 -5.01097 -3.55271e-015 7.59534 2.84217e-014 0.511571 -6.39172 0.695514 0 23.5015 2.84217e-014 1.55725 -1.11243 0.681844 -1.77636e-015 23.405 2.12773 -4.87986 26.6206 -3.24036 0 12.9677 -1.85252 2.78674 -3.25975 -3.38328 3.62206 22.4732 -0.132728 11.9436 2.69381 13.8964 8.17784 2.84217e-014 -2.84217e-014 -17.8259 2.76624 -2.38582 30.104 2.84217e-014 0 1.49891 0.267121 0.862792 24.4664 0 0 -2.12041 0.300655 -2.41915 -3.6336 22.4732 -0.132728 -10.2309 2.91875 19.0895 -8.17784 0 0 15.969 -1.66909 -6.44185 -30.104 -2.84217e-014 0 -3.96384 0.383955 2.34359 -24.4664 0 0 0.205852 0.468176 1.75078 9.26261 1.42109e-014 2.84217e-014 3.46262 11.5725 -1.91438 -1.77636e-015 -35.4897 0 -0.467361 -7.33435 -5.65796 0 -38.2023 0 0.0914039 -6.52056 22.6928 7.10543e-015 -6.0207 13.8939 -2.48481e-016 0 -3.18055e-015 -9.26261 1.42109e-014 0 -4.99257 1.31289 1.08534 7.10543e-015 -35.4897 0 -1.61775 5.88968 -2.62566 0 -38.2023 -2.84217e-014 3.27762 -7.59694 0.309897 0 -6.0207 13.8939 3.19919e-016 9.93923e-017 -7.95139e-016 
0 0 0 0 0 -0 -5.06837 75.3728 -194.575 -0.292215 0.126781 -5.01097 -3.55271e-015 7.59534 2.84217e-014 0.511571 -6.39172 0.695514 0 23.5015 2.84217e-014 1.55817 -1.11243 0.681844 0 23.405 2.12773 -4.86231 26.631 -3.24066 0 12.9677 -1.85252 2.77131 -3.28064 -3.38335 3.62206 22.4732 -0.132728 11.9542 2.69381 13.8964 8.17784 0 2.84217e-014 -17.8249 2.72494 -2.38219 30.104 0 0 1.49109 0.293356 0.857011 24.4664 2.84217e-014 0 -2.12943 0.327305 -2.428 -3.6336 22.4732 -0.132728 -10.2207 2.91027 19.0805 -8.17784 0 2.84217e-014 15.9698 -1.66276 -6.44183 -30.104 2.84217e-014 0 -3.96275 0.365878 2.34358 -24.4664 0 0 0.189289 0.449836 1.72177 9.26261 1.42109e-014 2.84217e-014 3.46223 11.5611 -1.9143 0 -35.4897 2.84217e-014 -0.470729 -7.33325 -5.68493 0 -38.2023 0 0.0885405 -6.52056 22.6928 7.10543e-015 -6.0207 13.8939 -3.47873e-016 7.95139e-016 -0 -9.26261 1.42109e-014 0 -4.98656 1.31394 1.08534 0 -35.4897 0 -1.61457 5.87457 -2.66335 0 -38.2023 -2.84217e-014 3.29812 -7.57157 0.352665 0 -6.0207 13.8939 1.81391e-015 -1.2424e-017 -7.95139e-016 
0 0 0 0 0 -0 -5.06837 75.3728 -194.573 -0.292213 0.126781 -5.01175 3.55271e-015 7.59534 2.84217e-014 0.511617 -6.3955 0.695519 0 23.5015 2.84217e-014 1.57231 -1.11243 0.681844 1.77636e-015 23.405 2.12773 -4.88819 26.6292 -3.23918 0 12.9677 -1.85252 2.79069 -3.27114 -3.38332 3.62206 22.4732 -0.132728 11.9517 2.69381 13.8968 8.17784 0 -2.84217e-014 -17.8236 2.71578 -2.37298 30.104 0 0 1.50029 0.289053 0.856938 24.4664 0 2.84217e-014 -2.14163 0.323715 -2.44652 -3.6336 22.4732 -0.132728 -10.2414 2.91922 19.0833 -8.17784 0 0 15.9672 -1.68497 -6.44191 -30.104 -2.84217e-014 0 -3.99829 0.278588 2.34116 -24.4664 0 2.84217e-014 0.163171 0.36299 1.73304 9.26261 0 0 3.46521 11.5571 -1.92979 3.55271e-015 -35.4897 0 -0.467373 -7.33383 -5.65845 0 -38.2023 0 0.102239 -6.52109 22.6814 0 -6.0207 13.8939 2.48481e-016 -3.97569e-016 -0 -9.26261 -1.42109e-014 0 -4.98521 1.29839 1.08533 -7.10543e-015 -35.4897 -2.84217e-014 -1.60814 5.89445 -2.63505 0 -38.2023 0 3.27842 -7.58756 0.31737 7.10543e-015 -6.0207 13.8939 2.11209e-016 -1.49089e-016 1.59028e-015 
0 0 0 0 0 -0 -5.06837 75.3728 -194.571 -0.2928 0.119757 -5.02584 -3.55271e-015 7.59534 0 0.511578 -6.39227 0.695514 0 23.5015 0 1.57561 -1.11243 0.681844 0 23.405 2.12773 -4.86744 26.6411 -3.23818 0 12.9677 -1.85252 2.76032 -3.29185 -3.39144 3.62206 22.4732 -0.132728 11.9536 2.6938 13.8972 8.17784 0 -2.84217e-014 -17.8214 2.71142 -2.37441 30.104 0 2.84217e-014 1.50525 0.275495 0.852225 24.4664 -2.84217e-014 0 -2.1461 0.310284 -2.44212 -3.6336 22.4732 -0.132728 -10.2413 2.91293 19.0729 -8.17784 0 0 15.9674 -1.68373 -6.4419 -30.104 0 0 -4.00482 0.26697 2.33023 -24.4664 -2.84217e-014 0 0.170291 0.351109 1.73484 9.26261 0 2.84217e-014 3.45956 11.5719 -1.89921 0 -35.4897 0 -0.470543 -7.33381 -5.68306 7.10543e-015 -38.2023 0 0.0984939 -6.52034 22.6974 7.10543e-015 -6.0207 13.8939 -4.96962e-017 -3.97569e-016 -0 -9.26261 1.42109e-014 2.84217e-014 -4.98433 1.30356 1.09009 -7.10543e-015 -35.4897 0 -1.61775 5.90088 -2.63055 0 -38.2023 0 3.31416 -7.60096 0.333471 0 -6.0207 13.8939 1.52816e-015 -3.72721e-017 -0 
0 0 0 0 0 -0 -5.06837 75.3728 -194.569 -0.290684 0.144085 -5.0164 0 7.59534 0 0.511774 -6.4083 0.695536 0 23.5015 2.84217e-014 1.57761 -1.11243 0.681844 0 23.405 2.12773 -4.8443 26.648 -3.23755 0 12.9677 -1.85252 2.7357 -3.30624 -3.39265 3.62206 22.4732 -0.132728 11.9653 2.68504 13.8974 8.17784 -2.84217e-014 0 -17.8201 2.70609 -2.36346 30.104 0 0 1.51642 0.275624 0.841568 24.4664 0 0 -2.15966 0.310858 -2.45664 -3.6336 22.4732 -0.132728 -10.231 2.91477 19.0684 -8.17784 0 -2.84217e-014 15.9536 -1.70275 -6.44197 -30.104 0 0 -3.99689 0.256402 2.33141 -24.4664 2.84217e-014 0 0.123973 0.339588 1.70809 9.26261 0 0 3.46087 11.5433 -1.91039 0 -35.4897 0 -0.469909 -7.33474 -5.65719 0 -38.2023 2.84217e-014 0.0865389 -6.52761 22.6807 0 -6.0207 13.8939 -0 0 1.59028e-015 -9.26261 0 2.84217e-014 -4.98278 1.28021 1.08934 -7.10543e-015 -35.4897 0 -1.61212 5.90036 -2.61881 0 -38.2023 0 3.27758 -7.59283 0.322394 0 -6.0207 13.8939 1.12127e-015 -1.61513e-016 -0 
0 0 0 0 0 -0 -5.06837 75.3728 -194.566 -0.293878 0.135639 -5.01549 0 7.59534 2.84217e-014 0.511665 -6.3994 0.695524 0 23.5015 0 1.57931 -1.10853 0.681843 0 23.405 2.12773 -4.86166 26.6616 -3.22606 0 12.9677 -1.85252 2.73974 -3.33702 -3.3817 3.62206 22.4732 -0.132728 11.9687 2.66674 13.8976 8.17784 2.84217e-014 0 -17.8175 2.73685 -2.36278 30.104 0 0 1.52857 0.26358 0.840136 24.4664 -2.84217e-014 0 -2.18313 0.299211 -2.4566 -3.6336 22.4732 -0.132728 -10.2423 2.91766 19.0671 -8.17784 -2.84217e-014 -2.84217e-014 15.9563 -1.71649 -6.44201 -30.104 2.84217e-014 -2.84217e-014 -3.9675 0.347323 2.32146 -24.4664 -2.84217e-014 0 0.070958 0.428916 1.69804 9.26261 2.84217e-014 2.84217e-014 3.46157 11.5562 -1.91181 -1.77636e-015 -35.4897 0 -0.462189 -7.33519 -5.71862 -7.10543e-015 -38.2023 0 -0.074305 -6.6743 22.7804 0 -6.0207 13.8939 -1.98785e-016 -7.95139e-016 1.59028e-015 -9.26261 1.42109e-014 0 -4.98138 1.28915 1.06796 0 -35.4897 0 -1.62678 5.89949 -2.61006 0 -38.2023 0 3.31204 -7.58333 0.332374 0 -6.0207 13.8939 -1.94126e-016 -2.48481e-017 7.95139e-016 
